<?xml version="1.0" standalone="no"?>
<svg xmlns="http://www.w3.org/2000/svg" viewBox="0 0 36 30" width="36" height="30"><path fill="#fe4e01" fill-rule="nonzero" d="M5.88 18.67Q3.70 18.67 2.20 17.46Q0.70 16.25 0 14.21L0 14.21L2.98 12.82L3.26 13.30Q3.96 14.50 4.60 15.17Q5.23 15.84 6.19 15.84L6.19 15.84Q6.82 15.84 7.31 15.24Q7.80 14.64 7.80 13.92L7.80 13.92Q7.80 13.25 7.46 12.70Q7.13 12.14 6.60 11.81L6.60 11.81L3.46 9.94Q2.09 9.17 1.27 7.99Q0.46 6.82 0.46 5.35L0.46 5.35Q0.46 3.79 1.19 2.57Q1.92 1.34 3.18 0.67Q4.44 0 6.02 0L6.02 0Q7.87 0 9.17 0.91Q10.46 1.82 11.09 3.62L11.09 3.62L8.11 4.97Q8.02 4.78 7.70 4.10Q7.39 3.43 6.95 3.13Q6.50 2.83 5.86 2.83L5.86 2.83Q5.06 2.83 4.64 3.34Q4.22 3.84 4.22 4.63L4.22 4.63Q4.22 5.21 4.55 5.68Q4.87 6.14 5.33 6.41L5.33 6.41L8.23 8.11Q11.45 9.94 11.62 12.91L11.62 12.91Q11.62 14.62 10.86 15.92Q10.10 17.23 8.80 17.95Q7.49 18.67 5.88 18.67L5.88 18.67ZM16.80 18.19L13.44 18.48L13.44 14.95L16.80 14.95L16.80 18.19ZM29.04 18.19L25.51 18.48L25.51 0.62L29.04 0.34L29.04 7.63L32.40 7.63L32.40 0.62L35.93 0.34L35.93 18.19L32.40 18.48L32.40 10.85L29.04 10.85L29.04 18.19Z"></path><line x1="10.7784" y1="28.672" x2="25.1496" y2="28.672" stroke="#fe4e01" stroke-linecap="round"></line></svg>